<?xml version="1.0" standalone="no"?>
<!DOCTYPE svg PUBLIC "-//W3C//DTD SVG 20010904//EN"
 "http://www.w3.org/TR/2001/REC-SVG-20010904/DTD/svg10.dtd">
<svg version="1.0" xmlns="http://www.w3.org/2000/svg"
 width="215.000000pt" height="215.000000pt" viewBox="0 0 215.000000 215.000000"
 preserveAspectRatio="xMidYMid meet">
<metadata>
Created by potrace 1.14, written by Peter Selinger 2001-2017
</metadata>
<g transform="translate(0.000000,215.000000) scale(0.100000,-0.100000)"
fill="#000000" stroke="none">
<path d="M280 2140 l-36 -5 2 -50 c3 -72 -3 -85 -36 -85 -15 0 -30 -6 -32 -12
-7 -20 -2 -188 6 -196 4 -4 20 -7 34 -7 l27 0 1 -130 c0 -145 -2 -157 -25
-154 -44 4 -50 0 -45 -36 4 -35 4 -35 -33 -35 l-38 0 0 -212 1 -213 36 -3 c35
-3 35 -3 33 -49 -3 -79 3 -93 41 -93 28 0 33 -3 32 -22 -2 -44 2 -48 37 -48
33 0 35 -2 35 -35 0 -33 2 -35 34 -35 33 0 35 -2 38 -37 3 -33 6 -37 31 -38
31 0 47 -18 40 -46 -5 -19 7 -24 50 -21 13 1 17 -6 17 -38 0 -39 1 -40 35 -40
32 0 35 -2 35 -30 0 -30 4 -32 48 -33 24 0 24 1 26 -42 1 -26 6 -31 37 -35
l35 -5 -1 -102 c0 -86 2 -103 15 -104 8 -1 24 -2 35 -3 14 -1 20 -9 22 -26 0
-14 1 -30 2 -36 1 -6 17 -10 36 -9 34 2 35 1 35 -35 l0 -37 158 -1 c190 -1
204 1 202 31 -4 41 -1 45 35 42 34 -2 35 -1 35 35 0 37 1 38 35 35 39 -2 36
-14 37 138 l0 77 34 0 c29 0 34 3 35 25 1 14 2 31 3 38 0 7 15 12 36 12 31 0
35 3 35 25 1 36 11 48 39 45 27 -3 37 12 31 45 -4 20 2 23 40 22 25 0 34 14
29 45 -3 14 1 24 8 24 7 1 20 3 28 4 8 1 21 3 28 4 7 0 12 15 12 36 0 34 1 35
40 35 39 0 40 1 40 34 0 32 3 35 33 38 30 3 32 5 29 36 -3 31 -2 32 32 32 l36
0 0 70 0 70 35 0 35 0 0 215 0 215 -34 0 c-33 0 -35 2 -38 37 -3 34 -6 37 -33
38 l-30 0 0 140 0 140 33 -1 32 -1 0 109 0 108 -35 0 -35 0 0 70 c0 60 -3 70
-17 71 -10 0 -71 1 -136 1 -126 1 -136 -2 -132 -46 l3 -23 -537 1 -536 1 -5
35 -5 35 -105 0 c-58 0 -121 -2 -140 -5z"/>
</g>
</svg>
